<?xml version="1.0" encoding="UTF-8" standalone="no"?>
<!-- Created with Inkscape (http://www.inkscape.org/) -->

<svg
   xmlns:dc="http://purl.org/dc/elements/1.1/"
   xmlns:cc="http://creativecommons.org/ns#"
   xmlns:rdf="http://www.w3.org/1999/02/22-rdf-syntax-ns#"
   xmlns:svg="http://www.w3.org/2000/svg"
   xmlns="http://www.w3.org/2000/svg"
   xmlns:sodipodi="http://sodipodi.sourceforge.net/DTD/sodipodi-0.dtd"
   xmlns:inkscape="http://www.inkscape.org/namespaces/inkscape"
   width="297.79346mm"
   height="266.28632mm"
   viewBox="0 0 297.79346 266.28632"
   version="1.1"
   id="svg8"
   inkscape:version="0.92.5 (2060ec1f9f, 2020-04-08)"
   sodipodi:docname="autotools.svg">
  <defs
     id="defs2">
    <marker
       inkscape:stockid="Arrow1Lend"
       orient="auto"
       refY="0"
       refX="0"
       id="Arrow1Lend"
       style="overflow:visible"
       inkscape:isstock="true">
      <path
         id="path1353"
         d="M 0,0 5,-5 -12.5,0 5,5 Z"
         style="fill:#000000;fill-opacity:1;fill-rule:evenodd;stroke:#000000;stroke-width:1.00000003pt;stroke-opacity:1"
         transform="matrix(-0.8,0,0,-0.8,-10,0)"
         inkscape:connector-curvature="0" />
    </marker>
    <marker
       inkscape:stockid="Arrow2Lend"
       orient="auto"
       refY="0"
       refX="0"
       id="marker5525"
       style="overflow:visible"
       inkscape:isstock="true">
      <path
         id="path5523"
         style="fill:#000000;fill-opacity:1;fill-rule:evenodd;stroke:#000000;stroke-width:0.625;stroke-linejoin:round;stroke-opacity:1"
         d="M 8.7185878,4.0337352 -2.2072895,0.01601326 8.7185884,-4.0017078 c -1.7454984,2.3720609 -1.7354408,5.6174519 -6e-7,8.035443 z"
         transform="matrix(-1.1,0,0,-1.1,-1.1,0)"
         inkscape:connector-curvature="0" />
    </marker>
    <marker
       inkscape:stockid="Arrow2Lend"
       orient="auto"
       refY="0"
       refX="0"
       id="marker5465"
       style="overflow:visible"
       inkscape:isstock="true">
      <path
         id="path5463"
         style="fill:#000000;fill-opacity:1;fill-rule:evenodd;stroke:#000000;stroke-width:0.625;stroke-linejoin:round;stroke-opacity:1"
         d="M 8.7185878,4.0337352 -2.2072895,0.01601326 8.7185884,-4.0017078 c -1.7454984,2.3720609 -1.7354408,5.6174519 -6e-7,8.035443 z"
         transform="matrix(-1.1,0,0,-1.1,-1.1,0)"
         inkscape:connector-curvature="0" />
    </marker>
    <marker
       inkscape:stockid="Arrow2Lstart"
       orient="auto"
       refY="0"
       refX="0"
       id="marker2662"
       style="overflow:visible"
       inkscape:isstock="true">
      <path
         id="path2660"
         style="fill:#000000;fill-opacity:1;fill-rule:evenodd;stroke:#000000;stroke-width:0.625;stroke-linejoin:round;stroke-opacity:1"
         d="M 8.7185878,4.0337352 -2.2072895,0.01601326 8.7185884,-4.0017078 c -1.7454984,2.3720609 -1.7354408,5.6174519 -6e-7,8.035443 z"
         transform="matrix(1.1,0,0,1.1,1.1,0)"
         inkscape:connector-curvature="0" />
    </marker>
    <marker
       inkscape:stockid="Arrow2Lend"
       orient="auto"
       refY="0"
       refX="0"
       id="marker2616"
       style="overflow:visible"
       inkscape:isstock="true">
      <path
         id="path2614"
         style="fill:#000000;fill-opacity:1;fill-rule:evenodd;stroke:#000000;stroke-width:0.625;stroke-linejoin:round;stroke-opacity:1"
         d="M 8.7185878,4.0337352 -2.2072895,0.01601326 8.7185884,-4.0017078 c -1.7454984,2.3720609 -1.7354408,5.6174519 -6e-7,8.035443 z"
         transform="matrix(-1.1,0,0,-1.1,-1.1,0)"
         inkscape:connector-curvature="0" />
    </marker>
    <marker
       inkscape:stockid="Arrow2Lstart"
       orient="auto"
       refY="0"
       refX="0"
       id="Arrow2Lstart"
       style="overflow:visible"
       inkscape:isstock="true">
      <path
         id="path1368"
         style="fill:#000000;fill-opacity:1;fill-rule:evenodd;stroke:#000000;stroke-width:0.625;stroke-linejoin:round;stroke-opacity:1"
         d="M 8.7185878,4.0337352 -2.2072895,0.01601326 8.7185884,-4.0017078 c -1.7454984,2.3720609 -1.7354408,5.6174519 -6e-7,8.035443 z"
         transform="matrix(1.1,0,0,1.1,1.1,0)"
         inkscape:connector-curvature="0" />
    </marker>
    <marker
       inkscape:stockid="Arrow2Lend"
       orient="auto"
       refY="0"
       refX="0"
       id="marker2544"
       style="overflow:visible"
       inkscape:isstock="true">
      <path
         id="path2542"
         style="fill:#000000;fill-opacity:1;fill-rule:evenodd;stroke:#000000;stroke-width:0.625;stroke-linejoin:round;stroke-opacity:1"
         d="M 8.7185878,4.0337352 -2.2072895,0.01601326 8.7185884,-4.0017078 c -1.7454984,2.3720609 -1.7354408,5.6174519 -6e-7,8.035443 z"
         transform="matrix(-1.1,0,0,-1.1,-1.1,0)"
         inkscape:connector-curvature="0" />
    </marker>
    <marker
       inkscape:stockid="Arrow2Lend"
       orient="auto"
       refY="0"
       refX="0"
       id="marker1634"
       style="overflow:visible"
       inkscape:isstock="true">
      <path
         id="path1632"
         style="fill:#000000;fill-opacity:1;fill-rule:evenodd;stroke:#000000;stroke-width:0.625;stroke-linejoin:round;stroke-opacity:1"
         d="M 8.7185878,4.0337352 -2.2072895,0.01601326 8.7185884,-4.0017078 c -1.7454984,2.3720609 -1.7354408,5.6174519 -6e-7,8.035443 z"
         transform="matrix(-1.1,0,0,-1.1,-1.1,0)"
         inkscape:connector-curvature="0" />
    </marker>
    <marker
       inkscape:stockid="Arrow2Lend"
       orient="auto"
       refY="0"
       refX="0"
       id="Arrow2Lend"
       style="overflow:visible"
       inkscape:isstock="true">
      <path
         id="path1371"
         style="fill:#000000;fill-opacity:1;fill-rule:evenodd;stroke:#000000;stroke-width:0.625;stroke-linejoin:round;stroke-opacity:1"
         d="M 8.7185878,4.0337352 -2.2072895,0.01601326 8.7185884,-4.0017078 c -1.7454984,2.3720609 -1.7354408,5.6174519 -6e-7,8.035443 z"
         transform="matrix(-1.1,0,0,-1.1,-1.1,0)"
         inkscape:connector-curvature="0" />
    </marker>
  </defs>
  <sodipodi:namedview
     id="base"
     pagecolor="#ffffff"
     bordercolor="#666666"
     borderopacity="1.0"
     inkscape:pageopacity="0.0"
     inkscape:pageshadow="2"
     inkscape:zoom="0.49497475"
     inkscape:cx="552.28919"
     inkscape:cy="470.74643"
     inkscape:document-units="mm"
     inkscape:current-layer="layer1"
     showgrid="false"
     inkscape:window-width="1270"
     inkscape:window-height="1380"
     inkscape:window-x="1282"
     inkscape:window-y="30"
     inkscape:window-maximized="0"
     fit-margin-top="0"
     fit-margin-left="0"
     fit-margin-right="0"
     fit-margin-bottom="0" />
  <metadata
     id="metadata5">
    <rdf:RDF>
      <cc:Work
         rdf:about="">
        <dc:format>image/svg+xml</dc:format>
        <dc:type
           rdf:resource="http://purl.org/dc/dcmitype/StillImage" />
        <dc:title></dc:title>
      </cc:Work>
    </rdf:RDF>
  </metadata>
  <g
     inkscape:label="Layer 1"
     inkscape:groupmode="layer"
     id="layer1"
     transform="translate(26.22002,-4.0139551)">
    <path
       style="opacity:0.778;fill:#00a500;fill-opacity:0.49612403;stroke:#000000;stroke-width:0.2;stroke-miterlimit:4;stroke-dasharray:none;stroke-dashoffset:0;stroke-opacity:1"
       id="path817-0"
       ry="10.016369"
       rx="35.907738"
       cy="134.28125"
       cx="86.178574"
       d=""
       inkscape:connector-curvature="0" />
    <path
       style="opacity:0.778;fill:#00a500;fill-opacity:0.49612403;stroke:#000000;stroke-width:0.2;stroke-miterlimit:4;stroke-dasharray:none;stroke-dashoffset:0;stroke-opacity:1"
       id="path817-9"
       ry="10.016369"
       rx="35.907738"
       cy="134.28125"
       cx="86.178574"
       d=""
       inkscape:connector-curvature="0" />
    <rect
       style="opacity:0.778;fill:#ff8080;fill-opacity:0.28947371;stroke:#000000;stroke-width:0.05549987;stroke-miterlimit:4;stroke-dasharray:0, 0.61049857;stroke-dashoffset:0;stroke-opacity:1"
       id="rect5673-7"
       width="297.79346"
       height="39.0919"
       x="-26.22002"
       y="231.20836" />
    <rect
       style="opacity:0.778;fill:#ffc680;fill-opacity:0.28947371;stroke:#000000;stroke-width:0.0598785;stroke-miterlimit:4;stroke-dasharray:0, 0.65866347;stroke-dashoffset:0;stroke-opacity:1"
       id="rect5673-4-1"
       width="297.64328"
       height="45.526447"
       x="-26.144932"
       y="4.0139551" />
    <rect
       style="opacity:0.778;fill:#80f2ff;fill-opacity:0.28947371;stroke:#000000;stroke-width:0.09173258;stroke-miterlimit:4;stroke-dasharray:0, 1.00905841;stroke-dashoffset:0;stroke-opacity:1"
       id="rect5673-4"
       width="297.64328"
       height="106.84869"
       x="-26.144922"
       y="49.540401" />
    <rect
       style="opacity:0.778;fill:#f8ff80;fill-opacity:0.28947371;stroke:#000000;stroke-width:0.07677549;stroke-miterlimit:4;stroke-dasharray:0, 0.84453039;stroke-dashoffset:0;stroke-opacity:1"
       id="rect5673"
       width="297.70526"
       height="74.830162"
       x="-26.175924"
       y="156.41487" />
    <g
       id="g950"
       transform="matrix(0.64550137,0,0,0.64550137,26.908807,121.72901)">
      <ellipse
         cx="86.178574"
         cy="135.79315"
         rx="35.907738"
         ry="10.016369"
         id="path817"
         style="opacity:0.778;fill:#00a500;fill-opacity:0.49612403;stroke:#000000;stroke-width:0.2;stroke-miterlimit:4;stroke-dasharray:none;stroke-dashoffset:0;stroke-opacity:1" />
      <text
         id="text821"
         y="138.57127"
         x="62.344986"
         style="font-style:normal;font-weight:normal;font-size:10.58333302px;line-height:1.25;font-family:sans-serif;letter-spacing:0px;word-spacing:0px;fill:#000000;fill-opacity:1;stroke:none;stroke-width:0.26458332"
         xml:space="preserve"><tspan
           style="font-style:normal;font-variant:normal;font-weight:normal;font-stretch:normal;font-family:'Ubuntu Mono';-inkscape-font-specification:'Ubuntu Mono';stroke-width:0.26458332"
           y="138.57127"
           x="62.344986"
           id="tspan819"
           sodipodi:role="line">configure</tspan></text>
    </g>
    <ellipse
       style="opacity:0.778;fill:#0093ff;fill-opacity:0.62209305;stroke:#000000;stroke-width:0.12910028;stroke-miterlimit:4;stroke-dasharray:none;stroke-dashoffset:0;stroke-opacity:1"
       id="path817-5-1"
       ry="17.289995"
       rx="19.837624"
       cy="112.47658"
       cx="136.842" />
    <text
       xml:space="preserve"
       style="font-style:normal;font-weight:normal;font-size:6.83155584px;line-height:1.25;font-family:sans-serif;letter-spacing:0px;word-spacing:0px;fill:#000000;fill-opacity:1;stroke:none;stroke-width:0.1707889"
       x="123.40402"
       y="111.86165"
       id="text825"><tspan
         sodipodi:role="line"
         id="tspan823"
         x="123.40402"
         y="111.86165"
         style="font-style:normal;font-variant:normal;font-weight:normal;font-stretch:normal;font-family:'Ubuntu Mono';-inkscape-font-specification:'Ubuntu Mono';stroke-width:0.1707889">automake</tspan></text>
    <g
       id="g1008"
       transform="matrix(0.64550137,0,0,0.64550137,15.197573,2.6326594)">
      <ellipse
         cx="104.32143"
         cy="97.050606"
         rx="35.907738"
         ry="10.016369"
         id="path817-7"
         style="opacity:0.778;fill:#0093ff;fill-opacity:0.62209305;stroke:#000000;stroke-width:0.2;stroke-miterlimit:4;stroke-dasharray:none;stroke-dashoffset:0;stroke-opacity:1" />
      <text
         id="text837"
         y="100.65952"
         x="77.651527"
         style="font-style:normal;font-weight:normal;font-size:10.58333302px;line-height:1.25;font-family:sans-serif;letter-spacing:0px;word-spacing:0px;fill:#000000;fill-opacity:1;stroke:none;stroke-width:0.26458332"
         xml:space="preserve"><tspan
           style="font-style:normal;font-variant:normal;font-weight:normal;font-stretch:normal;font-family:'Ubuntu Mono';-inkscape-font-specification:'Ubuntu Mono';stroke-width:0.26458332"
           y="100.65952"
           x="77.651527"
           id="tspan835"
           sodipodi:role="line">autoreconf</tspan></text>
    </g>
    <g
       id="g1257"
       transform="matrix(0.64550137,0,0,0.64550137,10.053568,88.242173)">
      <g
         transform="translate(8.5674697)"
         id="g1069">
        <rect
           style="opacity:0.778;fill:#ff8080;fill-opacity:1;stroke:#000000;stroke-width:0.2;stroke-miterlimit:4;stroke-dasharray:none;stroke-dashoffset:0;stroke-opacity:1"
           id="rect1021"
           width="72.949409"
           height="22.678572"
           x="122.0863"
           y="237.65773" />
        <text
           xml:space="preserve"
           style="font-style:normal;font-variant:normal;font-weight:normal;font-stretch:normal;font-size:10.58333302px;line-height:1.25;font-family:'Ubuntu Mono';-inkscape-font-specification:'Ubuntu Mono';letter-spacing:0px;word-spacing:0px;fill:#000000;fill-opacity:1;stroke:none;stroke-width:0.26458332"
           x="137.46321"
           y="252.60593"
           id="text1025"><tspan
             sodipodi:role="line"
             id="tspan1023"
             x="137.46321"
             y="252.60593"
             style="stroke-width:0.26458332">Makefile</tspan></text>
      </g>
      <g
         id="g1064">
        <rect
           style="opacity:0.778;fill:#ff8080;fill-opacity:1;stroke:#000000;stroke-width:0.2;stroke-miterlimit:4;stroke-dasharray:none;stroke-dashoffset:0;stroke-opacity:1"
           id="rect1021-8"
           width="72.949409"
           height="22.678572"
           x="20.97768"
           y="237.27977" />
        <text
           xml:space="preserve"
           style="font-style:normal;font-variant:normal;font-weight:normal;font-stretch:normal;font-size:10.58333302px;line-height:1.25;font-family:'Ubuntu Mono';-inkscape-font-specification:'Ubuntu Mono';letter-spacing:0px;word-spacing:0px;fill:#000000;fill-opacity:1;stroke:none;stroke-width:0.26458332"
           x="36.38633"
           y="251.39719"
           id="text1044"><tspan
             sodipodi:role="line"
             id="tspan1042"
             x="36.38633"
             y="251.39719"
             style="stroke-width:0.26458332">config.h</tspan></text>
      </g>
    </g>
    <g
       id="g1148"
       transform="matrix(0.64550137,0,0,0.64550137,-7.4533348,87.632208)">
      <path
         inkscape:connector-curvature="0"
         id="rect1021-8-4-3"
         d="m 15.308034,116.32738 h 72.949409 v 22.67857 H 15.308034 Z"
         style="opacity:0.778;fill:#ffff00;fill-opacity:1;stroke:#000000;stroke-width:0.2;stroke-miterlimit:4;stroke-dasharray:none;stroke-dashoffset:0;stroke-opacity:1" />
      <g
         id="text1112"
         style="font-style:normal;font-variant:normal;font-weight:normal;font-stretch:normal;font-size:10.58333302px;line-height:1.25;font-family:'Ubuntu Mono';-inkscape-font-specification:'Ubuntu Mono';letter-spacing:0px;word-spacing:0px;fill:#000000;fill-opacity:1;stroke:none;stroke-width:0.26458332"
         aria-label="config.h.in">
        <path
           inkscape:connector-curvature="0"
           id="path4793"
           style="stroke-width:0.26458332"
           d="m 23.297798,128.00004 q 0,-0.66675 0.211667,-1.15358 0.211666,-0.48683 0.582083,-0.80433 0.370417,-0.3175 0.85725,-0.46567 0.497417,-0.15875 1.058333,-0.15875 0.359834,0 0.709084,0.0529 0.359833,0.0423 0.762,0.16933 l -0.201084,0.75142 q -0.34925,-0.127 -0.645583,-0.15875 -0.28575,-0.0423 -0.582083,-0.0423 -0.381,0 -0.719667,0.10584 -0.338667,0.0952 -0.592667,0.3175 -0.243416,0.21166 -0.391583,0.56091 -0.148167,0.33867 -0.148167,0.8255 0,0.46567 0.137584,0.80434 0.137583,0.32808 0.381,0.55033 0.254,0.21167 0.60325,0.3175 0.34925,0.10583 0.772583,0.10583 0.338667,0 0.645583,-0.0318 0.3175,-0.0423 0.687917,-0.16933 l 0.127,0.73025 q -0.370417,0.13758 -0.751417,0.1905 -0.381,0.0635 -0.8255,0.0635 -0.592666,0 -1.090083,-0.15875 -0.486833,-0.16933 -0.846667,-0.48683 -0.34925,-0.3175 -0.550333,-0.79375 -0.1905,-0.48684 -0.1905,-1.12184 z" />
        <path
           inkscape:connector-curvature="0"
           id="path4795"
           style="stroke-width:0.26458332"
           d="m 32.939195,127.98946 q 0,0.58208 -0.169334,1.05833 -0.15875,0.46567 -0.455083,0.80434 -0.296333,0.33866 -0.709083,0.52916 -0.41275,0.17992 -0.899584,0.17992 -0.47625,0 -0.889,-0.17992 -0.402166,-0.1905 -0.6985,-0.52916 -0.296333,-0.33867 -0.465666,-0.80434 -0.15875,-0.47625 -0.15875,-1.05833 0,-0.58208 0.15875,-1.05833 0.169333,-0.47625 0.465666,-0.80434 0.296334,-0.33866 0.6985,-0.51858 0.41275,-0.1905 0.889,-0.1905 0.486834,0 0.899584,0.1905 0.41275,0.17992 0.709083,0.51858 0.296333,0.32809 0.455083,0.80434 0.169334,0.47625 0.169334,1.05833 z m -0.899584,0 q 0,-0.83608 -0.359833,-1.31233 -0.359833,-0.48684 -0.973667,-0.48684 -0.60325,0 -0.963083,0.48684 -0.34925,0.47625 -0.34925,1.31233 0,0.8255 0.34925,1.31233 0.359833,0.47625 0.963083,0.47625 0.613834,0 0.973667,-0.47625 0.359833,-0.48683 0.359833,-1.31233 z" />
        <path
           inkscape:connector-curvature="0"
           id="path4797"
           style="stroke-width:0.26458332"
           d="m 34.113924,125.67171 q 0.47625,-0.11642 0.941917,-0.17992 0.47625,-0.0635 0.889,-0.0635 0.98425,0 1.481667,0.508 0.508,0.508 0.508,1.62984 v 2.87866 h -0.867834 v -2.71991 q 0,-0.47625 -0.08467,-0.77259 -0.08467,-0.29633 -0.243417,-0.45508 -0.148167,-0.16933 -0.370417,-0.23283 -0.211666,-0.0635 -0.465666,-0.0635 -0.211667,0 -0.455084,0.0318 -0.232833,0.0212 -0.455083,0.0635 v 4.14866 H 34.11392 Z" />
        <path
           inkscape:connector-curvature="0"
           id="path4799"
           style="stroke-width:0.26458332"
           d="m 40.35807,130.44479 v -4.18041 h -1.037166 v -0.73025 h 1.037166 v -0.4445 q 0,-0.5715 0.15875,-0.94192 0.15875,-0.381 0.41275,-0.61383 0.264584,-0.23284 0.60325,-0.32809 0.34925,-0.0952 0.73025,-0.0952 0.381,0 0.762,0.0847 0.391584,0.0847 0.73025,0.20108 l -0.15875,0.75142 q -0.232833,-0.11642 -0.582083,-0.20108 -0.34925,-0.0847 -0.709083,-0.0847 -0.22225,0 -0.423334,0.0635 -0.1905,0.0529 -0.338666,0.20108 -0.148167,0.13759 -0.232834,0.381 -0.08467,0.23284 -0.08467,0.59267 v 0.43392 h 1.979083 v 0.73025 H 41.2259 v 4.18041 z" />
        <path
           inkscape:connector-curvature="0"
           id="path4801"
           style="stroke-width:0.26458332"
           d="m 46.157717,124.77213 q -0.275166,0 -0.47625,-0.1905 -0.201083,-0.1905 -0.201083,-0.51859 0,-0.32808 0.201083,-0.51858 0.201084,-0.1905 0.47625,-0.1905 0.28575,0 0.47625,0.1905 0.201084,0.1905 0.201084,0.51858 0,0.32809 -0.201084,0.51859 -0.1905,0.1905 -0.47625,0.1905 z m -0.22225,1.49225 h -1.418166 v -0.73025 h 2.286 v 3.01625 q 0,0.73025 0.201083,0.98425 0.201083,0.24341 0.60325,0.24341 0.306917,0 0.560917,-0.0741 0.264583,-0.0741 0.41275,-0.15875 l 0.127,0.74083 q -0.0635,0.0317 -0.179917,0.0847 -0.116417,0.0423 -0.275167,0.0847 -0.148166,0.0423 -0.338666,0.0741 -0.179917,0.0317 -0.381,0.0317 -0.465667,0 -0.772584,-0.127 -0.306916,-0.127 -0.497416,-0.381 -0.179917,-0.254 -0.254,-0.62442 -0.07408,-0.381 -0.07408,-0.87841 z" />
        <path
           inkscape:connector-curvature="0"
           id="path4803"
           style="stroke-width:0.26458332"
           d="m 52.899281,129.98971 q -0.148167,0.0847 -0.455083,0.17992 -0.306917,0.0952 -0.709084,0.0952 -0.433916,0 -0.814916,-0.13759 -0.370417,-0.14816 -0.656167,-0.43391 -0.275167,-0.29634 -0.4445,-0.74084 -0.15875,-0.45508 -0.15875,-1.06891 0,-0.53975 0.148167,-0.98425 0.15875,-0.45509 0.4445,-0.78317 0.296333,-0.32808 0.719666,-0.508 0.423334,-0.1905 0.963084,-0.1905 0.635,0 1.0795,0.0953 0.455083,0.0847 0.762,0.16933 v 4.3815 q 0,1.143 -0.582084,1.651 -0.5715,0.508 -1.735666,0.508 -0.47625,0 -0.867834,-0.0741 -0.381,-0.0741 -0.677333,-0.17992 l 0.15875,-0.77258 q 0.275167,0.11642 0.624417,0.1905 0.359833,0.0741 0.783166,0.0741 0.762,0 1.090084,-0.30691 0.328083,-0.30692 0.328083,-0.99484 z m 0,-3.683 q -0.127,-0.0423 -0.34925,-0.0741 -0.22225,-0.0423 -0.60325,-0.0423 -0.677333,0 -1.037167,0.46567 -0.34925,0.46567 -0.34925,1.23825 0,0.42333 0.09525,0.73025 0.105834,0.29633 0.275167,0.49742 0.179917,0.1905 0.402167,0.28575 0.22225,0.0847 0.47625,0.0847 0.328083,0 0.613833,-0.0952 0.296333,-0.0952 0.47625,-0.22225 z" />
        <path
           inkscape:connector-curvature="0"
           id="path4805"
           style="stroke-width:0.26458332"
           d="m 57.958093,129.76746 q 0,0.3175 -0.211667,0.56092 -0.211667,0.24341 -0.560917,0.24341 -0.359833,0 -0.5715,-0.24341 -0.211666,-0.24342 -0.211666,-0.56092 0,-0.32808 0.211666,-0.5715 0.211667,-0.24342 0.5715,-0.24342 0.34925,0 0.560917,0.24342 0.211667,0.24342 0.211667,0.5715 z" />
        <path
           inkscape:connector-curvature="0"
           id="path4807"
           style="stroke-width:0.26458332"
           d="m 60.572158,130.44479 v -7.18608 l 0.878417,-0.14817 v 2.49767 q 0.211667,-0.0847 0.47625,-0.127 0.264583,-0.0529 0.518583,-0.0529 0.560917,0 0.931334,0.16934 0.381,0.15875 0.60325,0.45508 0.22225,0.29633 0.3175,0.70908 0.09525,0.41275 0.09525,0.91017 v 2.77283 h -0.867834 v -2.58233 q 0,-0.91017 -0.254,-1.28058 -0.254,-0.381 -0.910166,-0.381 -0.275167,0 -0.53975,0.0635 -0.254,0.0529 -0.370417,0.10583 v 4.07458 z" />
        <path
           inkscape:connector-curvature="0"
           id="path4809"
           style="stroke-width:0.26458332"
           d="m 68.541387,129.76746 q 0,0.3175 -0.211667,0.56092 -0.211667,0.24341 -0.560917,0.24341 -0.359833,0 -0.5715,-0.24341 -0.211666,-0.24342 -0.211666,-0.56092 0,-0.32808 0.211666,-0.5715 0.211667,-0.24342 0.5715,-0.24342 0.34925,0 0.560917,0.24342 0.211667,0.24342 0.211667,0.5715 z" />
        <path
           inkscape:connector-curvature="0"
           id="path4811"
           style="stroke-width:0.26458332"
           d="m 72.615948,124.77213 q -0.275166,0 -0.47625,-0.1905 -0.201083,-0.1905 -0.201083,-0.51859 0,-0.32808 0.201083,-0.51858 0.201084,-0.1905 0.47625,-0.1905 0.28575,0 0.47625,0.1905 0.201084,0.1905 0.201084,0.51858 0,0.32809 -0.201084,0.51859 -0.1905,0.1905 -0.47625,0.1905 z m -0.22225,1.49225 h -1.418166 v -0.73025 h 2.286 v 3.01625 q 0,0.73025 0.201083,0.98425 0.201083,0.24341 0.60325,0.24341 0.306917,0 0.560917,-0.0741 0.264583,-0.0741 0.41275,-0.15875 l 0.127,0.74083 q -0.0635,0.0317 -0.179917,0.0847 -0.116417,0.0423 -0.275167,0.0847 -0.148166,0.0423 -0.338666,0.0741 -0.179917,0.0317 -0.381,0.0317 -0.465667,0 -0.772584,-0.127 -0.306916,-0.127 -0.497416,-0.381 -0.179917,-0.254 -0.254,-0.62442 -0.07408,-0.381 -0.07408,-0.87841 z" />
        <path
           inkscape:connector-curvature="0"
           id="path4813"
           style="stroke-width:0.26458332"
           d="m 76.447097,125.67171 q 0.47625,-0.11642 0.941917,-0.17992 0.47625,-0.0635 0.889,-0.0635 0.98425,0 1.481666,0.508 0.508,0.508 0.508,1.62984 v 2.87866 h -0.867833 v -2.71991 q 0,-0.47625 -0.08467,-0.77259 -0.08467,-0.29633 -0.243417,-0.45508 -0.148167,-0.16933 -0.370417,-0.23283 -0.211666,-0.0635 -0.465666,-0.0635 -0.211667,0 -0.455084,0.0318 -0.232833,0.0212 -0.455083,0.0635 v 4.14866 h -0.878417 z" />
      </g>
    </g>
    <g
       id="g1168"
       transform="matrix(0.64550137,0,0,0.64550137,34.004679,87.632208)">
      <path
         inkscape:connector-curvature="0"
         id="rect1021-8-4-3-7"
         d="m 93.54911,116.32738 h 72.94941 v 22.67857 H 93.54911 Z"
         style="opacity:0.778;fill:#ffff00;fill-opacity:1;stroke:#000000;stroke-width:0.2;stroke-miterlimit:4;stroke-dasharray:none;stroke-dashoffset:0;stroke-opacity:1" />
      <g
         id="text1116"
         style="font-style:normal;font-variant:normal;font-weight:normal;font-stretch:normal;font-size:10.58333302px;line-height:1.25;font-family:'Ubuntu Mono';-inkscape-font-specification:'Ubuntu Mono';letter-spacing:0px;word-spacing:0px;fill:#000000;fill-opacity:1;stroke:none;stroke-width:0.26458332"
         aria-label="Makefile.in">
        <path
           inkscape:connector-curvature="0"
           id="path4817"
           style="stroke-width:0.26458332"
           d="m 103.76667,127.97888 1.016,-3.25967 h 0.81492 q 0.21166,1.54517 0.29633,3.16442 0.0953,1.61925 0.16933,3.38666 h -0.84666 q -0.0106,-0.5715 -0.0212,-1.23825 -0.0106,-0.66675 -0.0318,-1.37583 -0.0106,-0.70908 -0.0318,-1.43933 -0.0106,-0.73025 -0.0317,-1.41817 l -0.9525,2.9845 h -0.762 l -0.97367,-2.9845 q -0.0106,0.68792 -0.0318,1.41817 -0.0106,0.71966 -0.0318,1.43933 -0.0106,0.70908 -0.0318,1.37583 -0.0106,0.66675 -0.0212,1.23825 h -0.84667 q 0.0318,-0.80433 0.0741,-1.651 0.0423,-0.84666 0.0953,-1.68275 0.0635,-0.83608 0.13759,-1.651 0.0847,-0.81491 0.17991,-1.56633 h 0.80434 z" />
        <path
           inkscape:connector-curvature="0"
           id="path4819"
           style="stroke-width:0.26458332"
           d="m 109.10065,130.64588 q 0.32808,0 0.58208,-0.0212 0.26459,-0.0212 0.43392,-0.0529 v -1.4605 q -0.16933,-0.0529 -0.41275,-0.0847 -0.23283,-0.0318 -0.49742,-0.0318 -0.24341,0 -0.47625,0.0423 -0.23283,0.0318 -0.41275,0.127 -0.17991,0.0952 -0.29633,0.254 -0.11642,0.14817 -0.11642,0.381 0,0.47625 0.3175,0.66675 0.32809,0.17992 0.87842,0.17992 z m -0.0847,-4.40267 q 0.55034,0 0.92075,0.13758 0.381,0.13759 0.61384,0.381 0.23283,0.24342 0.32808,0.59267 0.0953,0.34925 0.0953,0.762 v 3.06917 q -0.30692,0.0529 -0.81492,0.127 -0.49741,0.0741 -1.02658,0.0741 -0.40217,0 -0.78317,-0.0741 -0.381,-0.0635 -0.67733,-0.23284 -0.29633,-0.17991 -0.47625,-0.48683 -0.17992,-0.30692 -0.17992,-0.78317 0,-0.42333 0.17992,-0.70908 0.1905,-0.29633 0.47625,-0.47625 0.29633,-0.17992 0.66675,-0.254 0.381,-0.0847 0.762,-0.0847 0.51858,0 1.016,0.11642 v -0.24342 q 0,-0.22225 -0.0529,-0.42333 -0.0423,-0.21167 -0.17991,-0.381 -0.127,-0.16933 -0.35984,-0.26458 -0.22225,-0.10584 -0.58208,-0.10584 -0.45508,0 -0.79375,0.0635 -0.33867,0.0635 -0.51858,0.127 l -0.10584,-0.71966 q 0.17992,-0.0847 0.59267,-0.14817 0.42333,-0.0635 0.89958,-0.0635 z" />
        <path
           inkscape:connector-curvature="0"
           id="path4821"
           style="stroke-width:0.26458332"
           d="m 114.21238,128.57154 q 0.28575,0.21167 0.64558,0.53975 0.35984,0.3175 0.70909,0.68792 0.35983,0.37042 0.67733,0.762 0.3175,0.381 0.508,0.70908 h -1.03717 q -0.20108,-0.32808 -0.49741,-0.66675 -0.29634,-0.34925 -0.635,-0.66675 -0.32809,-0.3175 -0.66675,-0.58208 -0.32809,-0.26458 -0.59267,-0.4445 v 2.36008 h -0.87842 v -7.18608 l 0.87842,-0.14817 v 4.47675 q 0.58208,-0.508 1.16417,-1.00541 0.58208,-0.508 1.04775,-1.04775 h 1.02658 q -0.45508,0.53975 -1.10067,1.11125 -0.635,0.5715 -1.24883,1.10066 z" />
        <path
           inkscape:connector-curvature="0"
           id="path4823"
           style="stroke-width:0.26458332"
           d="m 119.72627,126.24321 q 0.99484,0 1.53459,0.62442 0.53975,0.61383 0.53975,1.87325 v 0.30691 h -3.51367 q 0.0529,0.762 0.49742,1.16417 0.45508,0.39158 1.27,0.39158 0.46566,0 0.79375,-0.0741 0.32808,-0.0741 0.49741,-0.15875 l 0.11642,0.74083 q -0.15875,0.0847 -0.5715,0.17992 -0.41275,0.0952 -0.93133,0.0952 -0.635,0 -1.12184,-0.1905 -0.47625,-0.20108 -0.79375,-0.53975 -0.3175,-0.33867 -0.47625,-0.80433 -0.15875,-0.47625 -0.15875,-1.02659 0,-0.65616 0.20109,-1.143 0.20108,-0.48683 0.52916,-0.80433 0.32809,-0.3175 0.74084,-0.47625 0.41275,-0.15875 0.84666,-0.15875 z m 1.18534,2.0955 q 0,-0.62442 -0.32809,-0.98425 -0.32808,-0.37042 -0.86783,-0.37042 -0.30692,0 -0.56092,0.11642 -0.24341,0.11642 -0.42333,0.30692 -0.17992,0.1905 -0.28575,0.43391 -0.10583,0.24342 -0.13758,0.49742 z" />
        <path
           inkscape:connector-curvature="0"
           id="path4825"
           style="stroke-width:0.26458332"
           d="m 123.98075,131.27029 v -4.18041 h -1.03716 v -0.73025 h 1.03716 v -0.4445 q 0,-0.5715 0.15875,-0.94192 0.15875,-0.381 0.41275,-0.61383 0.26459,-0.23284 0.60325,-0.32809 0.34925,-0.0952 0.73025,-0.0952 0.381,0 0.762,0.0847 0.39159,0.0847 0.73025,0.20108 l -0.15875,0.75142 q -0.23283,-0.11642 -0.58208,-0.20108 -0.34925,-0.0847 -0.70908,-0.0847 -0.22225,0 -0.42334,0.0635 -0.1905,0.0529 -0.33866,0.20108 -0.14817,0.13759 -0.23284,0.381 -0.0847,0.23284 -0.0847,0.59267 v 0.43392 h 1.97908 v 0.73025 h -1.97908 v 4.18041 z" />
        <path
           inkscape:connector-curvature="0"
           id="path4827"
           style="stroke-width:0.26458332"
           d="m 129.7804,125.59763 q -0.27516,0 -0.47625,-0.1905 -0.20108,-0.1905 -0.20108,-0.51859 0,-0.32808 0.20108,-0.51858 0.20109,-0.1905 0.47625,-0.1905 0.28575,0 0.47625,0.1905 0.20109,0.1905 0.20109,0.51858 0,0.32809 -0.20109,0.51859 -0.1905,0.1905 -0.47625,0.1905 z m -0.22225,1.49225 h -1.41816 v -0.73025 h 2.286 v 3.01625 q 0,0.73025 0.20108,0.98425 0.20108,0.24341 0.60325,0.24341 0.30692,0 0.56092,-0.0741 0.26458,-0.0741 0.41275,-0.15875 l 0.127,0.74083 q -0.0635,0.0318 -0.17992,0.0847 -0.11642,0.0423 -0.27517,0.0847 -0.14816,0.0423 -0.33866,0.0741 -0.17992,0.0317 -0.381,0.0317 -0.46567,0 -0.77259,-0.127 -0.30691,-0.127 -0.49741,-0.381 -0.17992,-0.254 -0.254,-0.62442 -0.0741,-0.381 -0.0741,-0.87841 z" />
        <path
           inkscape:connector-curvature="0"
           id="path4829"
           style="stroke-width:0.26458332"
           d="m 136.4373,131.38671 q -0.46567,0 -0.77259,-0.127 -0.30691,-0.127 -0.48683,-0.381 -0.17992,-0.254 -0.254,-0.62442 -0.0741,-0.381 -0.0741,-0.87841 v -4.64609 h -1.41817 v -0.74083 h 2.286 v 5.38692 q 0,0.37041 0.0423,0.60325 0.0529,0.23283 0.14817,0.381 0.10583,0.13758 0.254,0.1905 0.14817,0.0529 0.34925,0.0529 0.30692,0 0.5715,-0.0741 0.26458,-0.0741 0.41275,-0.15875 l 0.127,0.74083 q -0.0635,0.0318 -0.17992,0.0847 -0.11641,0.0423 -0.27516,0.0847 -0.15875,0.0423 -0.34925,0.0741 -0.17992,0.0317 -0.381,0.0317 z" />
        <path
           inkscape:connector-curvature="0"
           id="path4831"
           style="stroke-width:0.26458332"
           d="m 140.89286,126.24321 q 0.99484,0 1.53459,0.62442 0.53975,0.61383 0.53975,1.87325 v 0.30691 h -3.51367 q 0.0529,0.762 0.49742,1.16417 0.45508,0.39158 1.27,0.39158 0.46566,0 0.79375,-0.0741 0.32808,-0.0741 0.49741,-0.15875 l 0.11642,0.74083 q -0.15875,0.0847 -0.5715,0.17992 -0.41275,0.0952 -0.93133,0.0952 -0.635,0 -1.12184,-0.1905 -0.47625,-0.20108 -0.79375,-0.53975 -0.3175,-0.33867 -0.47625,-0.80433 -0.15875,-0.47625 -0.15875,-1.02659 0,-0.65616 0.20109,-1.143 0.20108,-0.48683 0.52916,-0.80433 0.32809,-0.3175 0.74084,-0.47625 0.41275,-0.15875 0.84666,-0.15875 z m 1.18534,2.0955 q 0,-0.62442 -0.32809,-0.98425 -0.32808,-0.37042 -0.86783,-0.37042 -0.30692,0 -0.56092,0.11642 -0.24341,0.11642 -0.42333,0.30692 -0.17992,0.1905 -0.28575,0.43391 -0.10583,0.24342 -0.13758,0.49742 z" />
        <path
           inkscape:connector-curvature="0"
           id="path4833"
           style="stroke-width:0.26458332"
           d="m 146.87242,130.59296 q 0,0.3175 -0.21166,0.56092 -0.21167,0.24341 -0.56092,0.24341 -0.35983,0 -0.5715,-0.24341 -0.21167,-0.24342 -0.21167,-0.56092 0,-0.32808 0.21167,-0.5715 0.21167,-0.24342 0.5715,-0.24342 0.34925,0 0.56092,0.24342 0.21166,0.24342 0.21166,0.5715 z" />
        <path
           inkscape:connector-curvature="0"
           id="path4835"
           style="stroke-width:0.26458332"
           d="m 150.94699,125.59763 q -0.27517,0 -0.47625,-0.1905 -0.20109,-0.1905 -0.20109,-0.51859 0,-0.32808 0.20109,-0.51858 0.20108,-0.1905 0.47625,-0.1905 0.28575,0 0.47625,0.1905 0.20108,0.1905 0.20108,0.51858 0,0.32809 -0.20108,0.51859 -0.1905,0.1905 -0.47625,0.1905 z m -0.22225,1.49225 h -1.41817 v -0.73025 h 2.286 v 3.01625 q 0,0.73025 0.20108,0.98425 0.20109,0.24341 0.60325,0.24341 0.30692,0 0.56092,-0.0741 0.26458,-0.0741 0.41275,-0.15875 l 0.127,0.74083 q -0.0635,0.0318 -0.17992,0.0847 -0.11641,0.0423 -0.27516,0.0847 -0.14817,0.0423 -0.33867,0.0741 -0.17992,0.0317 -0.381,0.0317 -0.46567,0 -0.77258,-0.127 -0.30692,-0.127 -0.49742,-0.381 -0.17992,-0.254 -0.254,-0.62442 -0.0741,-0.381 -0.0741,-0.87841 z" />
        <path
           inkscape:connector-curvature="0"
           id="path4837"
           style="stroke-width:0.26458332"
           d="m 154.77813,126.49721 q 0.47625,-0.11642 0.94192,-0.17992 0.47625,-0.0635 0.889,-0.0635 0.98425,0 1.48167,0.508 0.508,0.508 0.508,1.62984 v 2.87866 h -0.86784 v -2.71991 q 0,-0.47625 -0.0847,-0.77259 -0.0847,-0.29633 -0.24342,-0.45508 -0.14817,-0.16933 -0.37042,-0.23283 -0.21166,-0.0635 -0.46566,-0.0635 -0.21167,0 -0.45509,0.0318 -0.23283,0.0212 -0.45508,0.0635 v 4.14866 h -0.87842 z" />
      </g>
    </g>
    <g
       id="g1277"
       transform="matrix(0.64550137,0,0,0.64550137,10.053568,56.492172)">
      <g
         transform="translate(-63.499981,-0.37797165)"
         id="g1093">
        <rect
           style="opacity:0.778;fill:#ff9500;fill-opacity:1;stroke:#000000;stroke-width:0.2;stroke-miterlimit:4;stroke-dasharray:none;stroke-dashoffset:0;stroke-opacity:1"
           id="rect1021-8-4"
           width="72.949409"
           height="22.678572"
           x="84.477661"
           y="-58.297626" />
        <text
           xml:space="preserve"
           style="font-style:normal;font-variant:normal;font-weight:normal;font-stretch:normal;font-size:10.58333302px;line-height:1.25;font-family:'Ubuntu Mono';-inkscape-font-specification:'Ubuntu Mono';letter-spacing:0px;word-spacing:0px;fill:#000000;fill-opacity:1;stroke:none;stroke-width:0.26458332"
           x="89.202477"
           y="-44.180214"
           id="text1088"><tspan
             sodipodi:role="line"
             id="tspan1086"
             x="89.202477"
             y="-44.180214"
             style="stroke-width:0.26458332">configure.ac</tspan></text>
      </g>
      <g
         transform="translate(-45.294148)"
         id="g1191">
        <rect
           style="opacity:0.778;fill:#ff9500;fill-opacity:1;stroke:#000000;stroke-width:0.2;stroke-miterlimit:4;stroke-dasharray:none;stroke-dashoffset:0;stroke-opacity:1"
           id="rect1021-8-4-8"
           width="72.949409"
           height="22.678572"
           x="175.94792"
           y="-58.675598" />
        <text
           xml:space="preserve"
           style="font-style:normal;font-variant:normal;font-weight:normal;font-stretch:normal;font-size:10.58333302px;line-height:1.25;font-family:'Ubuntu Mono';-inkscape-font-specification:'Ubuntu Mono';letter-spacing:0px;word-spacing:0px;fill:#000000;fill-opacity:1;stroke:none;stroke-width:0.26458332"
           x="183.33972"
           y="-43.732689"
           id="text1088-0"><tspan
             sodipodi:role="line"
             id="tspan1086-9"
             x="183.33972"
             y="-43.732689"
             style="stroke-width:0.26458332">Makefile.am</tspan></text>
      </g>
    </g>
    <path
       style="fill:none;stroke:#000000;stroke-width:0.26458332px;stroke-linecap:butt;stroke-linejoin:miter;stroke-opacity:1"
       d="M 47.247024,33.172619 72.382439,59.441962"
       id="path1298"
       inkscape:connector-curvature="0"
       sodipodi:nodetypes="cc" />
    <path
       style="fill:none;stroke:#000000;stroke-width:0.26458332;stroke-linecap:butt;stroke-linejoin:miter;stroke-miterlimit:4;stroke-dasharray:0.52916663, 0.52916663;stroke-dashoffset:0;stroke-opacity:1"
       d="M 115.75522,33.17262 90.619792,59.441963"
       id="path1298-9"
       inkscape:connector-curvature="0"
       sodipodi:nodetypes="cc" />
    <path
       style="fill:none;stroke:#000000;stroke-width:0.26458332px;stroke-linecap:butt;stroke-linejoin:miter;stroke-opacity:1"
       d="M 48.758927,177.55954 74.45046,203.25107"
       id="path1342"
       inkscape:connector-curvature="0" />
    <path
       style="fill:none;stroke:#000000;stroke-width:0.26458332px;stroke-linecap:butt;stroke-linejoin:miter;stroke-opacity:1"
       d="M 117.86586,177.2082 91.740264,203.33379"
       id="path1344"
       inkscape:connector-curvature="0" />
    <path
       style="fill:none;stroke:#000000;stroke-width:0.26458332px;stroke-linecap:butt;stroke-linejoin:miter;stroke-opacity:1;marker-end:url(#marker1634)"
       d="M 75.784225,215.54615 49.703868,241.22561"
       id="path1346"
       inkscape:connector-curvature="0"
       sodipodi:nodetypes="cc" />
    <path
       style="fill:none;stroke:#000000;stroke-width:0.26458332px;stroke-linecap:butt;stroke-linejoin:miter;stroke-opacity:1;marker-end:url(#Arrow2Lend)"
       d="m 89.013391,215.54615 25.250879,25.98586"
       id="path1348"
       inkscape:connector-curvature="0"
       sodipodi:nodetypes="cc" />
    <text
       xml:space="preserve"
       style="font-style:normal;font-variant:normal;font-weight:normal;font-stretch:normal;font-size:10.58333302px;line-height:1.25;font-family:'Ubuntu Mono';-inkscape-font-specification:'Ubuntu Mono';letter-spacing:0px;word-spacing:0px;fill:#000000;fill-opacity:1;stroke:none;stroke-width:0.26458332"
       x="34.076862"
       y="111.78222"
       id="text4754"><tspan
         sodipodi:role="line"
         id="tspan4752"
         x="34.076862"
         y="121.65321"
         style="stroke-width:0.26458332" /></text>
    <g
       id="g5383"
       transform="translate(37.041668,10.583333)">
      <ellipse
         cx="33.665455"
         cy="100.68601"
         rx="19.837624"
         ry="17.289995"
         id="path817-5"
         style="opacity:0.778;fill:#0093ff;fill-opacity:0.62209305;stroke:#000000;stroke-width:0.12910028;stroke-miterlimit:4;stroke-dasharray:none;stroke-dashoffset:0;stroke-opacity:1" />
      <text
         id="text833"
         y="103.74014"
         x="16.385393"
         style="font-style:normal;font-weight:normal;font-size:6.83155584px;line-height:1.25;font-family:sans-serif;letter-spacing:0px;word-spacing:0px;fill:#000000;fill-opacity:1;stroke:none;stroke-width:0.1707889"
         xml:space="preserve"><tspan
           id="tspan4690"
           style="font-style:normal;font-variant:normal;font-weight:normal;font-stretch:normal;font-family:'Ubuntu Mono';-inkscape-font-specification:'Ubuntu Mono';stroke-width:0.1707889"
           y="103.74014"
           x="16.385393"
           sodipodi:role="line">autoheader</tspan></text>
      <text
         id="text833-2"
         y="109.10634"
         x="19.74309"
         style="font-style:normal;font-weight:normal;font-size:6.83155584px;line-height:1.25;font-family:sans-serif;letter-spacing:0px;word-spacing:0px;fill:#000000;fill-opacity:1;stroke:none;stroke-width:0.1707889"
         xml:space="preserve"><tspan
           id="tspan4690-4"
           style="font-style:normal;font-variant:normal;font-weight:normal;font-stretch:normal;font-family:'Ubuntu Mono';-inkscape-font-specification:'Ubuntu Mono';stroke-width:0.1707889"
           y="109.10634"
           x="19.74309"
           sodipodi:role="line">autom4te</tspan></text>
      <text
         id="text833-2-3"
         y="92.485168"
         x="21.46805"
         style="font-style:normal;font-weight:normal;font-size:6.83155584px;line-height:1.25;font-family:sans-serif;letter-spacing:0px;word-spacing:0px;fill:#000000;fill-opacity:1;stroke:none;stroke-width:0.1707889"
         xml:space="preserve"><tspan
           id="tspan4690-4-7"
           style="font-style:normal;font-variant:normal;font-weight:normal;font-stretch:normal;font-family:'Ubuntu Mono';-inkscape-font-specification:'Ubuntu Mono';stroke-width:0.1707889"
           y="92.485168"
           x="21.46805"
           sodipodi:role="line">aclocal</tspan></text>
      <text
         id="text833-2-3-1"
         y="114.76286"
         x="30.010878"
         style="font-style:normal;font-weight:normal;font-size:6.83155584px;line-height:1.25;font-family:sans-serif;letter-spacing:0px;word-spacing:0px;fill:#000000;fill-opacity:1;stroke:none;stroke-width:0.1707889"
         xml:space="preserve"><tspan
           id="tspan4690-4-7-2"
           style="font-style:normal;font-variant:normal;font-weight:normal;font-stretch:normal;font-family:'Ubuntu Mono';-inkscape-font-specification:'Ubuntu Mono';stroke-width:0.1707889"
           y="114.76286"
           x="30.010878"
           sodipodi:role="line">m4</tspan></text>
      <text
         id="text833-2-2"
         y="98.121201"
         x="19.650862"
         style="font-style:normal;font-weight:normal;font-size:6.83155584px;line-height:1.25;font-family:sans-serif;letter-spacing:0px;word-spacing:0px;fill:#000000;fill-opacity:1;stroke:none;stroke-width:0.1707889"
         xml:space="preserve"><tspan
           id="tspan4690-4-0"
           style="font-style:normal;font-variant:normal;font-weight:normal;font-stretch:normal;font-family:'Ubuntu Mono';-inkscape-font-specification:'Ubuntu Mono';stroke-width:0.1707889"
           y="98.121201"
           x="19.650862"
           sodipodi:role="line">autoconf</tspan></text>
    </g>
    <text
       xml:space="preserve"
       style="font-style:normal;font-weight:normal;font-size:6.83155584px;line-height:1.25;font-family:sans-serif;letter-spacing:0px;word-spacing:0px;fill:#000000;fill-opacity:1;stroke:none;stroke-width:0.1707889"
       x="123.40402"
       y="118.78216"
       id="text833-2-21"><tspan
         sodipodi:role="line"
         x="123.40402"
         y="118.78216"
         style="font-style:normal;font-variant:normal;font-weight:normal;font-stretch:normal;font-family:'Ubuntu Mono';-inkscape-font-specification:'Ubuntu Mono';stroke-width:0.1707889"
         id="tspan4690-4-75">autom4te</tspan></text>
    <path
       style="fill:none;stroke:#000000;stroke-width:0.26499999;stroke-linecap:butt;stroke-linejoin:miter;stroke-miterlimit:4;stroke-dasharray:none;stroke-opacity:1;marker-end:url(#marker5465)"
       d="m 70.826423,128.35293 11.759861,74.03365"
       id="path5461"
       inkscape:connector-curvature="0" />
    <path
       style="fill:none;stroke:#000000;stroke-width:0.26458332px;stroke-linecap:butt;stroke-linejoin:miter;stroke-opacity:1;marker-end:url(#marker5525)"
       d="M 53.988443,120.86938 24.856066,162.29616"
       id="path5521"
       inkscape:connector-curvature="0" />
    <path
       style="fill:none;stroke:#000000;stroke-width:0.26458332px;stroke-linecap:butt;stroke-linejoin:miter;stroke-opacity:1"
       d="M 81.517206,71.959056 73.499119,93.875158"
       id="path5587"
       inkscape:connector-curvature="0" />
    <path
       style="fill:none;stroke:#000000;stroke-width:0.26458332;stroke-linecap:butt;stroke-linejoin:miter;stroke-miterlimit:4;stroke-dasharray:0.52916663, 0.52916663;stroke-dashoffset:0;stroke-opacity:1"
       d="M 92.207986,71.157247 132.29841,95.211505"
       id="path5589"
       inkscape:connector-curvature="0" />
    <path
       style="fill:none;stroke:#000000;stroke-width:0.26458332;stroke-linecap:butt;stroke-linejoin:miter;stroke-miterlimit:4;stroke-dasharray:0.52916663, 0.52916663;stroke-dashoffset:0;stroke-opacity:1;marker-end:url(#Arrow1Lend)"
       d="m 136.57473,129.68927 -16.30344,32.60689"
       id="path5591"
       inkscape:connector-curvature="0" />
    <text
       xml:space="preserve"
       style="font-style:normal;font-variant:normal;font-weight:normal;font-stretch:normal;font-size:10.58333302px;line-height:1.25;font-family:Ubuntu;-inkscape-font-specification:Ubuntu;letter-spacing:0px;word-spacing:0px;fill:#000000;fill-opacity:1;stroke:none;stroke-width:0.26458332"
       x="191.16476"
       y="23.28997"
       id="text5728"><tspan
         sodipodi:role="line"
         id="tspan5726"
         x="191.16476"
         y="23.28997"
         style="stroke-width:0.26458332">Written by</tspan><tspan
         sodipodi:role="line"
         x="191.16476"
         y="36.519138"
         style="stroke-width:0.26458332"
         id="tspan5730">developers</tspan></text>
    <text
       xml:space="preserve"
       style="font-style:normal;font-variant:normal;font-weight:normal;font-stretch:normal;font-size:10.58333302px;line-height:1.25;font-family:Ubuntu;-inkscape-font-specification:Ubuntu;letter-spacing:0px;word-spacing:0px;fill:#000000;fill-opacity:1;stroke:none;stroke-width:0.26458332"
       x="188.42369"
       y="99.477539"
       id="text5734"><tspan
         sodipodi:role="line"
         id="tspan5732"
         x="188.42369"
         y="99.477539"
         style="stroke-width:0.26458332">Executed by</tspan><tspan
         sodipodi:role="line"
         x="188.42369"
         y="112.7067"
         style="stroke-width:0.26458332"
         id="tspan5736">developers</tspan></text>
    <text
       xml:space="preserve"
       style="font-style:normal;font-variant:normal;font-weight:normal;font-stretch:normal;font-size:10.58333302px;line-height:1.25;font-family:Ubuntu;-inkscape-font-specification:Ubuntu;letter-spacing:0px;word-spacing:0px;fill:#000000;fill-opacity:1;stroke:none;stroke-width:0.26458332"
       x="189.78365"
       y="184.63832"
       id="text5740"><tspan
         sodipodi:role="line"
         id="tspan5738"
         x="189.78365"
         y="184.63832"
         style="stroke-width:0.26458332">Provided in</tspan><tspan
         sodipodi:role="line"
         x="189.78365"
         y="197.86749"
         style="stroke-width:0.26458332"
         id="tspan5742">the source</tspan><tspan
         sodipodi:role="line"
         x="189.78365"
         y="211.09665"
         style="stroke-width:0.26458332"
         id="tspan5744">distribution</tspan></text>
    <text
       xml:space="preserve"
       style="font-style:normal;font-variant:normal;font-weight:normal;font-stretch:normal;font-size:10.58333302px;line-height:1.25;font-family:Ubuntu;-inkscape-font-specification:Ubuntu;letter-spacing:0px;word-spacing:0px;fill:#000000;fill-opacity:1;stroke:none;stroke-width:0.26458332"
       x="190.88429"
       y="247.25122"
       id="text5748"><tspan
         sodipodi:role="line"
         id="tspan5746"
         x="190.88429"
         y="247.25122"
         style="stroke-width:0.26458332">Generated</tspan><tspan
         sodipodi:role="line"
         x="190.88429"
         y="260.48038"
         style="stroke-width:0.26458332"
         id="tspan5750">by the user</tspan></text>
  </g>
</svg>
